<?xml version="1.0" encoding="UTF-8"?><svg width="161" height="59" viewBox="0 0 161 59" fill="none" xmlns="http://www.w3.org/2000/svg">
<path d="M0.100098 43.6495L25.2465 29.0981L18.4457 25.4519L0.100098 43.6495Z" fill="#2D3E61"/>
<path d="M18.4792 25.5187L20.3119 19.5101L0 14.3558L18.4792 25.5187Z" fill="#2D3E61"/>
<path d="M50.4313 14.0265L31.7898 24.9603L36.1376 29.4608L50.4313 14.0265Z" fill="#2D3E61"/>
<path d="M50.3644 43.6495L25.2466 29.0981L25.4757 36.8152L50.3644 43.6495Z" fill="#2D3E61"/>
<path d="M19.491 38.2613L25.4423 58.43L25.5759 36.7532L19.491 38.2613Z" fill="#2D3E61"/>
<path d="M25.2466 0V29.0981L31.7897 24.9937L25.2466 0Z" fill="#2D3E61"/>
<path d="M38.3329 36.653L33.9803 44.2413H29.2078L28.3535 47.1621H35.7127L40.8814 38.1659L38.3329 36.653Z" fill="#2D3E61"/>
<path d="M25.0176 44.2413H16.4843L13.9644 39.841L11.0198 40.6619L14.7519 47.1621H25.0176V44.2413Z" fill="#2D3E61"/>
<path d="M7.71709 28.9024L10.1368 24.6978L8.01299 22.4309L4.28564 28.9024L9.58315 38.1659L12.1651 36.653L7.71709 28.9024Z" fill="#2D3E61"/>
<path d="M12.1987 21.0516L16.4844 13.5969H21.6817L22.4357 10.6761H14.752L9.65015 19.5769L12.1987 21.0516Z" fill="#2D3E61"/>
<path d="M25.2466 13.5969H33.9803L36.4334 17.8683L39.4114 17.1143L35.7127 10.6761H25.2466V13.5969Z" fill="#2D3E61"/>
<path d="M42.3227 35.6364L46.1789 28.9024L41.015 19.9348L38.4951 21.4477L42.7474 28.9024L40.1273 33.4984L42.3227 35.6364Z" fill="#2D3E61"/>
<path d="M65.6222 28.344H65.6843C66.2092 26.5066 67.9464 20.708 68.6003 18.1642C68.7351 17.749 68.8107 17.3168 68.8246 16.8804C68.8246 16.5559 68.6003 16.2934 67.7508 16.2934C67.6505 16.2934 67.5503 16.2266 67.5503 16.1598C67.5503 16.093 67.6505 16.0261 67.8796 16.0261C68.8628 16.0261 69.6455 16.093 69.7886 16.093C69.9318 16.093 70.7431 16.0261 71.3254 16.0261C71.4877 16.0261 71.5879 16.0595 71.5879 16.1264C71.5893 16.1487 71.5859 16.171 71.578 16.1919C71.5701 16.2128 71.5579 16.2318 71.5421 16.2476C71.5263 16.2634 71.5073 16.2756 71.4864 16.2835C71.4655 16.2914 71.4431 16.2948 71.4208 16.2934C71.2003 16.3038 70.9813 16.3358 70.767 16.3889C70.2134 16.6179 69.9175 17.4388 69.5596 18.5556C68.71 21.085 66.8154 27.4229 66.0613 29.6565C65.584 31.136 65.5077 31.3984 65.2738 31.3984C65.04 31.3984 64.9827 31.136 64.7202 30.3485L61.0263 19.2476H60.9881C60.3056 21.1566 57.7189 28.4777 57.0365 30.3151C56.7406 31.1694 56.6403 31.3984 56.4112 31.3984C56.1822 31.3984 56.1201 31.1694 55.7574 29.8235L52.388 17.9638C52.0969 16.9138 51.8344 16.6179 51.3428 16.4223C51.066 16.3372 50.7781 16.2938 50.4885 16.2934C50.3931 16.2934 50.3311 16.2934 50.3311 16.1598C50.3311 16.0261 50.4599 16.0261 50.6222 16.0261C51.5767 16.0261 52.6505 16.093 52.8462 16.093C53.0419 16.093 53.8627 16.0261 54.8125 16.0261C55.0749 16.0261 55.137 16.093 55.137 16.1598C55.137 16.2266 55.0368 16.2934 54.9413 16.2934C54.6944 16.2812 54.448 16.3253 54.2207 16.4223C54.1416 16.4743 54.0767 16.5452 54.0317 16.6284C53.9867 16.7117 53.9631 16.8049 53.9629 16.8995C53.9629 17.162 54.1586 17.8874 54.3209 18.7417C54.6168 20.0207 56.5783 27.3322 56.8694 28.3965H56.9028L60.8926 17.0331C61.1838 16.2123 61.2506 16.112 61.3699 16.112C61.4892 16.112 61.6038 16.3745 61.8472 17.0666L65.6222 28.344Z" fill="#2D3E61"/>
<path d="M76.2078 16.5225C76.4321 15.8639 76.499 15.735 76.6278 15.735C76.7567 15.735 76.8235 15.8304 77.0573 16.4556C77.3819 17.2097 80.4888 25.4519 81.701 28.4776C82.4169 30.2816 83.0087 30.5775 83.4 30.7112C83.6638 30.7959 83.9391 30.8393 84.2161 30.84C84.3163 30.84 84.4118 30.84 84.4118 30.9403C84.4118 31.0405 84.2161 31.1025 83.987 31.1025C83.758 31.1025 82.2546 31.1025 80.8801 31.0691C80.5222 31.0357 80.2931 31.0357 80.2931 30.9403C80.2931 30.8448 80.3551 30.8066 80.422 30.7732C80.4888 30.7398 80.651 30.5775 80.5508 30.2482L78.6895 25.323C78.6787 25.2898 78.6564 25.2616 78.6267 25.2432C78.597 25.2249 78.5618 25.2177 78.5273 25.2228H74.232C74.1849 25.2247 74.1397 25.2422 74.1035 25.2724C74.0673 25.3026 74.042 25.3438 74.0316 25.3898L72.8575 28.9024C72.6804 29.3299 72.5818 29.7858 72.5664 30.2482C72.5664 30.6444 72.9864 30.84 73.3157 30.84H73.5114C73.6784 30.84 73.707 30.8734 73.707 30.9403C73.707 31.0071 73.6116 31.1025 73.4159 31.1025C72.9387 31.1025 72.1082 31.0357 71.8744 31.0357C71.6405 31.0357 70.5667 31.1025 69.6217 31.1025C69.3593 31.1025 69.259 31.0691 69.259 30.9403C69.259 30.8114 69.3259 30.84 69.4261 30.84C69.6231 30.8322 69.8193 30.8098 70.0131 30.7732C70.9294 30.6778 71.3208 29.9189 71.6787 28.9024L76.2078 16.5225ZM78.2648 24.5021C78.365 24.5021 78.365 24.4353 78.3268 24.3685L76.4655 18.9851C76.3653 18.6892 76.2699 18.6892 76.1697 18.9851L74.4038 24.3685C74.3704 24.4687 74.4038 24.5021 74.4706 24.5021H78.2648Z" fill="#2D3E61"/>
<path d="M87.3228 25.3564C87.3228 28.2772 87.3897 29.561 87.7524 29.9189C88.1151 30.2769 88.6019 30.3962 90.1386 30.3962C91.1886 30.3962 92.0476 30.3962 92.5583 29.8044C92.8261 29.4454 93.0059 29.0285 93.0833 28.5874C93.0833 28.4585 93.1167 28.3583 93.2503 28.3583C93.3839 28.3583 93.3792 28.4251 93.3792 28.6542C93.3177 29.3163 93.2189 29.9743 93.0833 30.6253C92.921 31.1025 92.8542 31.1837 91.809 31.1837C90.3773 31.1837 89.3559 31.1502 88.5064 31.1168C87.6569 31.0834 87.0747 31.05 86.4781 31.05C86.4113 31.05 86.0868 31.0834 85.662 31.0834C85.2372 31.0834 84.8411 31.1168 84.5452 31.1168C84.3209 31.1168 84.2207 31.0834 84.2207 30.9546C84.2207 30.8257 84.2541 30.8544 84.383 30.8544C84.5826 30.8368 84.7805 30.8033 84.9748 30.7541C85.3661 30.6921 85.452 30.2292 85.5618 29.6708C85.662 28.8165 85.662 27.2416 85.662 25.3373V21.8104C85.662 18.6892 85.662 18.1308 85.6286 17.5151C85.5952 16.8995 85.4329 16.4986 84.7791 16.365C84.5502 16.3278 84.3189 16.307 84.0871 16.3029C83.9916 16.3029 83.9248 16.2695 83.9248 16.2027C83.9248 16.1359 84.025 16.0357 84.2541 16.0357C85.137 16.0357 86.3826 16.1025 86.4781 16.1025C86.5736 16.1025 88.0483 16.0357 88.6353 16.0357C88.8691 16.0357 88.9646 16.0691 88.9646 16.2027C88.9646 16.3363 88.8691 16.3029 88.8023 16.3029C88.5834 16.3112 88.3651 16.3319 88.1485 16.365C87.5567 16.4652 87.3944 16.7945 87.361 17.5151C87.3276 18.1403 87.3276 18.6987 87.3276 21.8104L87.3228 25.3564Z" fill="#2D3E61"/>
<path d="M99.259 25.323C99.259 27.232 99.259 28.8022 99.3592 29.6564C99.426 30.2148 99.5549 30.6778 100.147 30.7398C100.409 30.7732 100.863 30.84 101.025 30.84C101.187 30.84 101.192 30.8734 101.192 30.9403C101.192 31.0071 101.092 31.1025 100.863 31.1025C99.784 31.1025 98.5431 31.0357 98.4429 31.0357C98.3427 31.0357 97.0732 31.1025 96.4814 31.1025C96.2523 31.1025 96.1569 31.0691 96.1569 30.9403C96.1569 30.8114 96.1855 30.84 96.3191 30.84C96.5176 30.8257 96.7142 30.7922 96.9062 30.7398C97.3357 30.6778 97.4311 30.2148 97.4932 29.6564C97.5934 28.8022 97.5934 27.2272 97.5934 25.323V16.8804L94.6488 16.9138C93.4031 16.9472 92.945 17.0808 92.6204 17.5724C92.4889 17.7568 92.3785 17.9553 92.2911 18.1642C92.2291 18.3265 92.1623 18.3599 92.0954 18.3599C92.0286 18.3599 92 18.3265 92 18.1976C92 18.0688 92.3913 16.2886 92.4248 16.1263C92.4582 15.9641 92.5536 15.735 92.6204 15.735C92.9044 15.8541 93.2004 15.9421 93.5033 15.9975C94.0951 16.0261 94.8444 16.0929 95.0735 16.0929H102.528C102.999 16.0862 103.469 16.0543 103.936 15.9975C104.12 15.9428 104.306 15.8982 104.494 15.8639C104.595 15.8639 104.595 15.9975 104.595 16.1263C104.595 16.7181 104.528 18.0974 104.528 18.3265C104.528 18.5556 104.461 18.589 104.394 18.589C104.327 18.589 104.265 18.5221 104.232 18.231L104.199 17.9972C104.165 17.4054 103.678 16.9472 101.779 16.9138L99.259 16.8804V25.323Z" fill="#2D3E61"/>
<path d="M112.932 15.735C117.409 15.735 120.75 18.5556 120.75 23.2183C120.75 27.6854 117.609 31.3984 112.803 31.3984C107.372 31.3984 105.115 27.127 105.115 23.5476C105.115 20.2975 107.439 15.735 112.932 15.735ZM113.347 30.611C115.113 30.611 118.845 29.5944 118.845 23.7767C118.845 19.0042 115.929 16.4222 112.794 16.4222C109.453 16.4222 106.971 18.6224 106.971 22.9892C106.981 27.6234 109.758 30.611 113.347 30.611Z" fill="#2D3E61"/>
<path d="M124.706 28.3774C124.739 30.0192 124.935 30.5441 125.46 30.7112C125.792 30.7898 126.131 30.833 126.472 30.84C126.572 30.84 126.634 30.8734 126.634 30.9403C126.634 31.0071 126.505 31.1025 126.271 31.1025C125.131 31.1025 124.362 31.0357 124.152 31.0357C123.942 31.0357 123.136 31.1025 122.243 31.1025C122.048 31.1025 121.919 31.0691 121.919 30.9403C121.919 30.8114 121.981 30.84 122.081 30.84C122.358 30.8342 122.632 30.7908 122.897 30.7112C123.375 30.5775 123.489 29.9858 123.489 28.1817L123.518 16.7277C123.518 15.9402 123.585 15.7111 123.747 15.7111C123.909 15.7111 124.224 16.1884 124.434 16.365C124.73 16.6943 127.675 19.911 130.748 23.1945C132.71 25.2991 134.867 27.7618 135.521 28.4204L135.301 18.2931C135.301 17.014 135.139 16.5559 134.518 16.3841C134.203 16.3281 133.884 16.2962 133.564 16.2886C133.402 16.2886 133.402 16.2218 133.402 16.155C133.402 16.0882 133.564 16.0214 133.793 16.0214C134.676 16.0214 135.626 16.0882 135.85 16.0882C136.074 16.0882 136.738 16.0214 137.554 16.0214C137.749 16.0214 137.916 16.0214 137.916 16.155C137.916 16.2886 137.816 16.2886 137.683 16.2886C137.521 16.2885 137.361 16.3094 137.205 16.3507C136.551 16.4843 136.485 16.9424 136.485 18.126L136.451 29.8187C136.451 31.1312 136.418 31.2505 136.256 31.2505C136.093 31.2505 135.859 31.05 134.824 29.9667C134.6 29.771 131.75 26.8454 129.627 24.5833C127.336 22.0872 125.078 19.5578 124.458 18.8324L124.706 28.3774Z" fill="#2D3E61"/>
<path d="M144.102 30.84C143.839 30.7112 143.806 30.611 143.806 30.086C143.806 29.0981 143.906 28.2772 143.906 27.9813C143.906 27.6854 143.973 27.6568 144.068 27.6568C144.164 27.6568 144.197 27.7188 144.197 27.8858C144.19 28.1279 144.213 28.3698 144.264 28.6065C144.56 30.086 145.867 30.6444 147.204 30.6444C147.57 30.6706 147.937 30.6212 148.283 30.4992C148.629 30.3773 148.946 30.1855 149.215 29.9357C149.483 29.6858 149.698 29.3834 149.844 29.0472C149.991 28.7109 150.067 28.3481 150.067 27.9813C150.067 26.602 149.48 25.8146 147.776 24.4019L146.893 23.6478C144.77 21.9393 144.312 20.6937 144.312 19.3526C144.312 17.2193 145.882 15.7445 148.43 15.7445C149.046 15.7455 149.661 15.8111 150.263 15.9402C150.486 16.0054 150.718 16.0375 150.95 16.0357C151.112 16.0357 151.146 16.1025 151.146 16.2027C151.146 16.3029 151.084 16.9568 151.084 18.3026C151.084 18.6319 151.046 18.7799 150.95 18.7799C150.855 18.7799 150.788 18.6797 150.788 18.5174C150.75 18.1768 150.662 17.8438 150.525 17.5295C150.392 17.3004 149.872 16.4461 148.039 16.4461C147.723 16.4217 147.406 16.463 147.107 16.5675C146.808 16.6719 146.534 16.8372 146.302 17.0529C146.07 17.2686 145.885 17.5301 145.76 17.8208C145.634 18.1114 145.57 18.425 145.571 18.7417C145.571 19.8871 146.092 20.5791 147.991 22.0825L148.55 22.5072C150.902 24.378 151.461 25.6284 151.461 27.2034C151.458 27.8542 151.303 28.4952 151.008 29.0753C150.713 29.6554 150.286 30.1584 149.762 30.5441C148.879 31.1248 147.84 31.4227 146.784 31.3984C145.859 31.4179 144.942 31.227 144.102 30.84Z" fill="#2D3E61"/>
<path d="M155.971 17.0141L154.367 17.0475C153.78 17.0809 153.518 17.1429 153.355 17.3768C153.272 17.485 153.206 17.6058 153.16 17.7347C153.16 17.8015 153.126 17.8683 153.06 17.8683C152.993 17.8683 152.964 17.8015 152.964 17.7013C153.016 17.2709 153.092 16.8439 153.193 16.4223C153.227 16.2934 153.255 16.26 153.293 16.26C153.332 16.26 153.489 16.322 153.771 16.3554C154.118 16.3963 154.467 16.4186 154.816 16.4223H159.111C159.364 16.4259 159.617 16.4035 159.865 16.3554C159.95 16.3345 160.036 16.3233 160.123 16.322C160.223 16.322 160.223 16.3888 160.223 16.5225C160.223 16.7516 160.19 17.5056 160.19 17.8015C160.19 17.9017 160.156 17.9638 160.089 17.9638C160.023 17.9638 159.994 17.9017 159.994 17.7347L159.961 17.6392C159.961 17.3768 159.67 17.0475 158.715 17.0475L157.379 17.0141V21.2186C157.359 21.9527 157.381 22.6873 157.446 23.4188C157.474 23.7147 157.508 23.896 157.837 23.9438C158.02 23.9715 158.205 23.9827 158.39 23.9772C158.43 23.973 158.469 23.9841 158.5 24.0081C158.531 24.0321 158.552 24.0672 158.558 24.106C158.558 24.1728 158.457 24.2062 158.357 24.2062C157.641 24.2062 156.925 24.1728 156.625 24.1728C156.324 24.1728 155.641 24.2062 155.25 24.2062C155.088 24.2062 155.026 24.1728 155.026 24.106C155.026 24.0392 155.054 23.9772 155.183 23.9772C155.316 23.986 155.45 23.9747 155.579 23.9438C155.809 23.9103 155.837 23.7147 155.875 23.4188C155.935 22.687 155.956 21.9526 155.937 21.2186L155.971 17.0141Z" fill="#2D3E61"/>
<path d="M157.703 27.5566C157.702 27.7312 157.65 27.9016 157.552 28.0463C157.454 28.1909 157.316 28.3034 157.154 28.3693C156.992 28.4353 156.815 28.4518 156.643 28.4168C156.472 28.3818 156.316 28.2969 156.193 28.1727C156.07 28.0486 155.987 27.8908 155.954 27.7193C155.92 27.5479 155.939 27.3705 156.007 27.2095C156.074 27.0485 156.188 26.9113 156.334 26.815C156.48 26.7188 156.651 26.6679 156.825 26.6689C156.941 26.6695 157.056 26.693 157.163 26.7379C157.27 26.7829 157.367 26.8484 157.448 26.9308C157.53 27.0133 157.594 27.111 157.638 27.2183C157.682 27.3257 157.704 27.4406 157.703 27.5566Z" fill="#2D3E61"/>
<path d="M147.466 42.6043C147.466 44.1124 147.5 44.7376 147.7 44.9333C147.901 45.129 148.287 45.1624 149.103 45.1624C149.662 45.1624 150.153 45.1624 150.378 44.8665C150.527 44.7046 150.619 44.4985 150.64 44.2795C150.678 44.2127 150.707 44.1458 150.774 44.1458C150.84 44.1458 150.836 44.1793 150.836 44.3129C150.816 44.656 150.763 44.9963 150.678 45.3294C150.611 45.5919 150.578 45.6253 149.986 45.6253C149.232 45.6253 148.645 45.5919 148.154 45.5919C147.662 45.5919 147.304 45.5585 146.98 45.5585H146.55C146.346 45.5846 146.14 45.5957 145.934 45.5919C145.801 45.5919 145.767 45.5585 145.767 45.4917C145.767 45.4249 145.767 45.4249 145.834 45.4249C145.945 45.4208 146.054 45.3999 146.159 45.3628C146.392 45.3294 146.392 45.1338 146.455 44.8379C146.52 44.0841 146.543 43.3272 146.521 42.5709V40.7574C146.521 39.149 146.521 38.8483 146.488 38.5238C146.455 38.1993 146.393 37.9988 146.011 37.9654C145.894 37.9364 145.773 37.9252 145.653 37.932C145.615 37.932 145.586 37.87 145.586 37.8366C145.586 37.8032 145.615 37.7698 145.748 37.7698H148.134C148.235 37.7698 148.297 37.7698 148.297 37.8366C148.297 37.9034 148.268 37.932 148.235 37.932H147.877C147.547 37.9988 147.481 38.1659 147.481 38.5238C147.481 38.8818 147.447 39.149 147.447 40.7574L147.466 42.6043Z" fill="#2D3E61"/>
<path d="M133.306 37.9654C133.435 37.6409 133.473 37.5741 133.568 37.5741C133.664 37.5741 133.697 37.7029 133.798 37.932C133.993 38.4093 135.707 42.6616 136.379 44.2079C136.742 45.1624 137.033 45.2912 137.267 45.3581C137.405 45.3907 137.546 45.4115 137.687 45.4201C137.754 45.4201 137.821 45.4201 137.821 45.4869C137.821 45.5537 137.721 45.5871 137.592 45.5871C137.463 45.5871 136.637 45.5871 135.893 45.5537C135.697 45.5537 135.53 45.5537 135.53 45.4869C135.53 45.4201 135.563 45.4201 135.597 45.4201C135.648 45.3944 135.688 45.3495 135.706 45.295C135.725 45.2406 135.722 45.1809 135.697 45.129L134.743 42.7427C134.714 42.6759 134.714 42.6759 134.647 42.6759H132.194C132.127 42.6759 132.099 42.7093 132.065 42.7761L131.483 44.437C131.395 44.6582 131.342 44.8916 131.325 45.129C131.334 45.2143 131.376 45.2928 131.442 45.3474C131.508 45.4019 131.593 45.4281 131.679 45.4201H131.779C131.879 45.4201 131.879 45.4535 131.879 45.4869C131.879 45.5203 131.846 45.5871 131.745 45.5871C131.483 45.5871 130.896 45.5537 130.791 45.5537C130.686 45.5537 130.17 45.5871 129.712 45.5871C129.583 45.5871 129.517 45.5537 129.517 45.4869C129.517 45.4201 129.583 45.4201 129.612 45.4201C129.641 45.4201 129.841 45.3915 129.937 45.3915C130.414 45.3246 130.629 44.9619 130.824 44.437L133.306 37.9654ZM134.485 42.2607C134.547 42.2607 134.547 42.2273 134.518 42.1939L133.473 39.3685C133.406 39.2063 133.339 39.2063 133.277 39.3685L132.294 42.1939C132.294 42.2273 132.294 42.2607 132.323 42.2607H134.485Z" fill="#2D3E61"/>
<path d="M119.342 42.5661C119.32 43.3224 119.343 44.0793 119.408 44.8331C119.442 45.129 119.47 45.3103 119.8 45.3581C119.957 45.3904 120.117 45.4112 120.277 45.4201C120.344 45.4201 120.372 45.4535 120.372 45.4869C120.372 45.5203 120.31 45.5871 120.21 45.5871C119.623 45.5871 118.936 45.5537 118.869 45.5537C118.802 45.5537 118.086 45.5871 117.791 45.5871C117.662 45.5871 117.595 45.5537 117.595 45.4869C117.595 45.4201 117.628 45.4201 117.69 45.4201C117.752 45.4201 117.924 45.3915 118.02 45.3915C118.215 45.3246 118.282 45.129 118.316 44.8331C118.381 44.0793 118.404 43.3224 118.382 42.5661V38.2279L116.841 38.2613C116.154 38.2613 115.925 38.3615 115.762 38.5906C115.69 38.6904 115.635 38.8017 115.6 38.9199C115.567 39.0201 115.533 39.0201 115.471 39.0201C115.452 39.0105 115.436 38.9962 115.425 38.9787C115.413 38.9612 115.406 38.9409 115.404 38.9199C115.404 38.8197 115.629 37.9034 115.629 37.8032C115.629 37.7029 115.695 37.6075 115.729 37.6075C115.885 37.6597 116.045 37.7027 116.206 37.7363C116.502 37.7697 116.922 37.7697 117.022 37.7697H121.05C121.312 37.7791 121.573 37.7679 121.833 37.7363C121.928 37.7121 122.026 37.7009 122.124 37.7029C122.162 37.7029 122.162 37.7363 122.162 37.8032C122.162 38.1325 122.124 38.8531 122.124 38.9867C122.124 39.1204 122.095 39.1156 122.029 39.1156C121.962 39.1156 121.962 39.0822 121.962 38.9533L121.928 38.8197C121.9 38.5238 121.666 38.2947 120.654 38.2613L119.313 38.2279L119.342 42.5661Z" fill="#2D3E61"/>
<path d="M106.255 42.5661C106.255 43.5827 106.255 44.4036 106.294 44.8331C106.36 45.129 106.389 45.3103 106.685 45.3581C106.842 45.3904 107.002 45.4112 107.162 45.4201C107.229 45.4201 107.258 45.4535 107.258 45.4869C107.258 45.5203 107.196 45.5871 107.062 45.5871C106.475 45.5871 105.788 45.5537 105.754 45.5537C105.721 45.5537 105.034 45.5871 104.709 45.5871C104.58 45.5871 104.513 45.5537 104.513 45.4869C104.513 45.4201 104.542 45.4201 104.609 45.4201C104.72 45.4161 104.829 45.3951 104.933 45.3581C105.134 45.3247 105.167 45.129 105.196 44.8331C105.262 44.0794 105.284 43.3224 105.263 42.5661V38.5238C105.234 38.1659 105.134 38.0466 104.905 37.9654C104.798 37.9409 104.689 37.9297 104.58 37.932C104.542 37.932 104.513 37.87 104.513 37.8366C104.513 37.8032 104.542 37.7698 104.676 37.7698H106.799C106.933 37.7698 107 37.7698 107 37.8366C106.993 37.8597 106.98 37.8805 106.962 37.8972C106.945 37.9139 106.923 37.9259 106.9 37.932C106.811 37.9288 106.722 37.9401 106.637 37.9654C106.346 38.0322 106.279 38.1659 106.241 38.5238V42.5661H106.255Z" fill="#2D3E61"/>
<path d="M91.3461 40.7574C91.3461 39.149 91.3461 38.8483 91.3127 38.5238C91.2792 38.1993 91.2172 37.9988 90.8354 37.9654C90.7184 37.9364 90.5978 37.9252 90.4775 37.932C90.4441 37.932 90.4106 37.87 90.4106 37.8366C90.4106 37.8032 90.4441 37.7698 90.5729 37.7698H93.3219C94.6916 37.7698 95.1879 38.1993 95.3502 38.3615C95.5249 38.5124 95.6648 38.6993 95.7603 38.9094C95.8559 39.1195 95.9048 39.3478 95.9038 39.5785C95.9038 41.0867 94.7584 42.0412 93.1596 42.0412H92.8303C92.8041 42.04 92.7793 42.0291 92.7607 42.0105C92.7422 41.992 92.7313 41.9671 92.7301 41.9409C92.7301 41.8741 92.7969 41.8407 92.9926 41.8407C94.1714 41.8407 94.9923 41.1201 94.9923 40.1656C95.0032 39.874 94.9532 39.5834 94.8456 39.3122C94.7379 39.0411 94.575 38.7953 94.3671 38.5906C94.1779 38.4111 93.9517 38.2752 93.7043 38.1928C93.4569 38.1103 93.1943 38.0832 92.9353 38.1134C92.7778 38.1134 92.4581 38.1802 92.3483 38.1802C92.3143 38.1992 92.287 38.2281 92.2699 38.2631C92.2529 38.2981 92.2469 38.3374 92.2528 38.3759V42.5805C92.2314 43.3368 92.2537 44.0937 92.3197 44.8474C92.3483 45.1433 92.4151 45.3247 92.7396 45.3724C92.8964 45.4081 93.0562 45.4289 93.2169 45.4344C93.2837 45.4344 93.3171 45.4678 93.3171 45.5012C93.3171 45.5347 93.2551 45.6015 93.1548 45.6015C92.5631 45.6015 91.8472 45.5681 91.8138 45.5681C91.7804 45.5681 91.0931 45.6015 90.7686 45.6015C90.635 45.6015 90.6015 45.5681 90.6015 45.5012C90.6015 45.4344 90.6015 45.4344 90.6684 45.4344C90.7791 45.4304 90.8885 45.4095 90.9929 45.3724C91.1933 45.339 91.2267 45.1433 91.2936 44.8474C91.3548 44.0934 91.3755 43.3367 91.3556 42.5805L91.3461 40.7574Z" fill="#2D3E61"/>
<path d="M78.3648 37.9654C78.4937 37.6409 78.5605 37.5741 78.6273 37.5741C78.6941 37.5741 78.7562 37.7029 78.885 37.932C79.0807 38.4093 80.794 42.6616 81.4383 44.2079C81.8297 45.1624 82.1208 45.2912 82.3546 45.3581C82.4917 45.395 82.6327 45.4158 82.7746 45.4201C82.8128 45.4201 82.9083 45.4201 82.9083 45.4869C82.9083 45.5537 82.7746 45.5871 82.6458 45.5871C82.5169 45.5871 81.6913 45.5871 80.9801 45.5537C80.7845 45.5537 80.5888 45.5537 80.5888 45.4869C80.5888 45.4201 80.6174 45.4201 80.6843 45.4201C80.7307 45.3894 80.7656 45.3442 80.7838 45.2915C80.8019 45.2389 80.8021 45.1818 80.7845 45.129L79.8013 42.7427C79.8013 42.6759 79.7679 42.6759 79.7011 42.6759H77.2528C77.2146 42.6759 77.186 42.7093 77.1526 42.7761L76.5322 44.4179C76.4398 44.6381 76.3834 44.8718 76.3651 45.1099C76.3651 45.3056 76.5608 45.401 76.7612 45.401H76.8615C76.9235 45.401 76.9569 45.4344 76.9569 45.4678C76.9569 45.5012 76.8901 45.568 76.7946 45.568C76.5322 45.568 75.9451 45.5346 75.8401 45.5346C75.7351 45.5346 75.1863 45.568 74.7568 45.568C74.6279 45.568 74.5325 45.5346 74.5325 45.4678C74.5325 45.401 74.5945 45.401 74.6279 45.401C74.6613 45.401 74.8904 45.3724 74.9572 45.3724C75.4345 45.3056 75.6445 44.9428 75.8735 44.4179L78.3648 37.9654ZM79.5389 42.2607C79.6057 42.2607 79.6057 42.2273 79.6057 42.1939L78.508 39.3781C78.4412 39.2158 78.4078 39.2158 78.3457 39.3781L77.3292 42.2034C77.3292 42.2368 77.3292 42.2702 77.396 42.2702L79.5389 42.2607Z" fill="#2D3E61"/>
<path d="M61.2267 44.5992C60.7927 44.2215 60.4496 43.7506 60.2232 43.2217C59.9967 42.6928 59.8928 42.1196 59.919 41.5448C59.9393 40.4833 60.3724 39.4716 61.1265 38.7243C61.7803 38.0991 62.73 37.6075 64.3622 37.6075C64.8883 37.6065 65.4135 37.6496 65.9324 37.7363C66.3237 37.8032 66.653 37.87 67.0158 37.9034C67.1112 37.9034 67.1446 37.932 67.1446 37.9988C67.1446 38.0656 67.1112 38.1993 67.1112 38.5906C67.1112 38.982 67.0826 39.5117 67.0826 39.6406C67.0826 39.7694 67.0158 39.8697 66.9489 39.8697C66.8821 39.8697 66.8821 39.8076 66.8821 39.6406C66.8822 39.4488 66.8419 39.2591 66.7638 39.084C66.6856 38.9088 66.5715 38.7521 66.4287 38.624C65.814 38.2026 65.0779 37.9947 64.3336 38.0322C62.9543 38.0322 62.3005 38.3949 61.9092 38.7529C61.1265 39.4783 60.9547 40.3994 60.9547 41.4494C60.9544 41.9505 61.0549 42.4466 61.25 42.9082C61.4452 43.3698 61.7311 43.7875 62.0907 44.1364C62.4504 44.4854 62.8765 44.7586 63.3438 44.9398C63.811 45.1209 64.3099 45.2064 64.8109 45.191C65.5983 45.191 66.1185 45.1576 66.5481 44.7138C66.7592 44.4565 66.9049 44.1519 66.9728 43.8261C67.0062 43.7306 67.0062 43.6972 67.073 43.6972C67.1398 43.6972 67.1685 43.7593 67.1685 43.8261C67.1199 44.2814 67.0321 44.7317 66.906 45.1719C66.8726 45.3724 66.8392 45.401 66.6435 45.4678C66.0229 45.6429 65.3789 45.7202 64.7345 45.6969C63.1214 45.716 62.0762 45.3246 61.2267 44.5992Z" fill="#2D3E61"/>
</svg>
